<?xml version="1.0" encoding="utf-8"?>
<!-- Generator: Adobe Illustrator 18.0.0, SVG Export Plug-In . SVG Version: 6.00 Build 0)  -->
<!DOCTYPE svg PUBLIC "-//W3C//DTD SVG 1.1//EN" "http://www.w3.org/Graphics/SVG/1.1/DTD/svg11.dtd">
<svg version="1.1" id="Layer_1" xmlns="http://www.w3.org/2000/svg" xmlns:xlink="http://www.w3.org/1999/xlink" x="0px" y="0px"
	 viewBox="0 0 595.3 841.9" enable-background="new 0 0 595.3 841.9" xml:space="preserve">
<g>
	<path fill="#FFFFFF" d="M-322.5,280c-4.1,5.4-7.9,7.1-7.9,7.1c6.9-0.2,12.4-5.8,12.4-12.8c0-0.8-0.1-1.6-0.2-2.3
		C-318.2,272.1-318.5,274.7-322.5,280z"/>
	<path fill="#FFFFFF" d="M-318.2,261.3c-0.8-0.6-2.1-0.4-3.3,0.1c-1.7,0.7-3.2,1.8-3.2,1.8c-1.8-1-3.9-1.5-6-1.5
		c-7,0-12.7,5.7-12.7,12.8c0,2,0.4,3.9,1.3,5.6c0,0-2-4.8,0.2-9.3c2.2-4.4,4.8-3.6,5.4-3.3c0.9,0.5,2,1.3,1.5,4.6
		c-0.4,3.1-3.5,7.6-4.7,11.2c-0.1,0.4-1.6,4.3,0.5,5.6c2.3,1.4,7.9-2.6,10.8-5.6c1.7-1.8,4.6-4.9,7-8.5c1.2-1.8,2.2-3.7,2.9-5.6
		c0.9-2.3,1.3-4.1,1.3-5.3v-0.3C-317.3,262.5-317.6,261.8-318.2,261.3z M-320.2,267.4c-0.4-0.6-0.9-1.2-1.3-1.7
		c-0.7-0.8-1.5-1.5-2.4-2c0,0,1.2-0.9,2.4-1.2c0.8-0.3,1.6-0.3,2.1,0.2C-318.3,263.8-320.2,267.4-320.2,267.4z"/>
</g>
<g>
	<polygon fill="#FFFFFF" points="-301.1,265.8 -301.2,265.8 -307.5,253.3 -312.1,253.3 -303.3,271.1 -299.1,271.1 -290.6,253.3 
		-295.2,253.3 	"/>
	<polygon fill="#FFFFFF" points="-268.2,265.2 -268.3,265.2 -279.1,253.3 -284,253.3 -284,271.1 -279.8,271.1 -279.8,258.9 
		-279.7,258.9 -268.6,271.1 -264.1,271.1 -264.1,253.3 -268.3,253.3 	"/>
	<path fill="#FFFFFF" d="M-236.5,255c-0.6-0.5-1.3-1-2.2-1.3c-0.9-0.3-1.9-0.5-3.1-0.5h-0.1h-2.2h-9.4v17.8h4.5v-6.4h4.9h2.2
		c1.3,0,2.4-0.2,3.2-0.5c0.9-0.3,1.6-0.8,2.2-1.3c0.6-0.5,1-1.1,1.2-1.8c0.3-0.7,0.4-1.4,0.4-2.1c0-0.7-0.1-1.4-0.4-2.1
		C-235.5,256.2-235.9,255.6-236.5,255z M-239.5,260.4c-0.2,0.4-0.5,0.6-0.9,0.8c-0.4,0.2-0.8,0.3-1.3,0.4c-0.5,0.1-1,0.1-1.5,0.1h-1
		h-4.9v-5.4h4.9h1c0.5,0,1,0,1.5,0.1c0.5,0.1,0.9,0.2,1.3,0.4c0.4,0.2,0.6,0.5,0.9,0.8c0.2,0.4,0.3,0.8,0.3,1.4
		C-239.2,259.5-239.3,260-239.5,260.4z"/>
	<polygon fill="#FFFFFF" points="-230.3,253.3 -230.3,257 -223.3,257 -223.3,271.1 -218.9,271.1 -218.9,257 -211.6,257 
		-211.6,253.3 	"/>
</g>
<text transform="matrix(1.1072 0 0 1 -311.0308 287.8947)" fill="#FFFFFF" font-family="'Roboto-Regular'" font-size="17.079">SmartCloud</text>
<path fill="#FFFFFF" d="M-354.6,286.8c-5,0-9-4.1-9-9c0-4.3,2.9-7.9,7-8.8c-0.2-0.9-0.2-1.6-0.2-2.5c0-7.4,6.1-13.5,13.5-13.5
	c5.4,0,9.9,3.2,12.2,7.4c1.8-1.8,4.3-2.9,7-2.9c5.6,0,10.1,4.5,10.1,10.1v1.4c0.9-4.9-0.5-8.1-2.3-10.1c-2.3-2.3-4.4-3.5-7.9-3.5
	c-2.5,0-4.5,0.5-6.5,1.6c-2.9-3.8-7.4-6.3-12.6-6.3c-8.8,0-15.8,7-15.8,15.8v0.9c-4.1,1.8-6.8,5.6-6.8,10.4c0,6.3,5,11.3,11.3,11.3
	h13.9c-0.6-0.7-1.2-1.5-1.7-2.3H-354.6z"/>
</svg>
